<?xml version="1.0" standalone="no"?><!DOCTYPE svg PUBLIC "-//W3C//DTD SVG 1.1//EN" "http://www.w3.org/Graphics/SVG/1.1/DTD/svg11.dtd"><svg t="1725810225127" class="icon" viewBox="0 0 1024 1024" version="1.1" xmlns="http://www.w3.org/2000/svg" p-id="4468" xmlns:xlink="http://www.w3.org/1999/xlink" width="200" height="200"><path d="M597.610667 494.912c-0.853333-5.376 1.770667-10.346667 4.693333-15.232 0.448-0.746667 0.896-1.344 1.941333-1.429333 3.861333-0.32 7.552 0.298667 10.752 2.432 2.325333 1.557333 4.608 3.114667 7.125334 4.373333 5.013333 2.517333 6.976 7.232 8.085333 12.373333 1.002667 4.650667-0.021333 8.96-2.218667 13.077334-3.328 6.272-7.68 11.904-11.477333 17.856-2.666667 4.181333-5.013333 8.533333-7.04 13.056-0.597333 1.322667-1.173333 2.645333-1.322667 4.117333-0.618667 5.44 3.541333 8.832 8.725334 7.168 1.664-0.533333 2.986667-1.6 4.501333-2.410667 7.509333-4.032 14.890667-8.362667 22.592-11.989333 15.829333-7.466667 32.725333-11.114667 50.048-12.778667 7.893333-0.768 15.424 1.216 22.314667 5.248 7.082667 4.16 11.072 10.453333 12.522666 18.410667 0.469333 2.517333-0.362667 4.821333-2.069333 6.613333-5.205333 5.482667-8.426667 12.138667-11.669333 18.837334-3.690667 7.594667-6.890667 15.402667-10.645334 22.933333-2.837333 5.696-4.992 11.690667-8.042666 17.28-3.093333 5.674667-5.845333 11.562667-8.746667 17.344-2.901333 5.802667-5.781333 11.605333-8.682667 17.386667-1.152 2.282667-2.154667 4.629333-2.730666 7.146666-1.109333 4.8-0.490667 9.322667 2.090666 13.546667 0.533333 0.874667 1.024 1.813333 1.706667 2.538667 15.146667 15.914667 29.226667 33.066667 48.213333 44.778666 22.869333 14.101333 46.805333 26.069333 72.469334 34.176 29.504 9.322667 58.794667 19.242667 88.533333 27.754667 14.933333 4.266667 29.653333 9.130667 43.562667 16.170667 5.077333 2.56 9.706667 5.717333 13.418666 10.069333 3.093333 3.626667 2.837333 5.824-0.917333 8.768-5.354667 4.181333-11.754667 4.778667-18.176 5.056-7.914667 0.362667-15.552-1.706667-23.296-2.986667-20.373333-3.328-40.661333-7.018667-60.522667-12.736-1.792-0.512-3.477333-1.109333-5.12-2.112-1.898667-1.173333-4.010667-2.282667-6.506666-1.557333-0.64 0.192-1.493333-0.192-2.218667-0.426667-27.434667-8.704-53.610667-20.202667-77.781333-35.946666-13.973333-9.088-27.008-19.456-39.168-30.826667-9.28-8.682667-19.093333-16.512-30.165334-22.741333-5.696-3.2-10.624-7.381333-15.317333-11.882667-0.981333-0.938667-1.984-1.877333-3.072-2.709333-5.504-4.202667-11.456-4.288-16.981333-0.128-4.032 3.050667-7.36 6.869333-10.730667 10.602666-7.722667 8.554667-15.466667 17.088-23.061333 25.728-19.093333 21.717333-42.346667 37.888-67.605334 51.541334-16.661333 9.024-34.218667 15.253333-52.842666 18.517333-9.258667 1.621333-17.984-0.213333-26.048-5.056-3.306667-1.984-3.328-3.050667-0.384-5.44 3.093333-2.496 6.698667-4.096 10.346666-5.546667 18.752-7.466667 36.650667-16.618667 53.930667-27.008 8.234667-4.949333 15.381333-11.306667 22.954667-17.130666 10.816-8.341333 21.930667-16.256 32.021333-25.514667 5.418667-4.970667 10.965333-10.026667 15.168-15.893333 6.848-9.578667 15.210667-17.898667 21.76-27.669334 7.232-10.794667 6.848-17.322667-2.261333-26.517333-7.04-7.104-14.421333-13.824-22.826667-19.306667-6.229333-4.074667-12.992-6.762667-20.437333-7.509333-3.925333-0.405333-7.616 0.32-11.072 2.282667-7.168 4.074667-12.906667 9.834667-18.176 15.978666-11.2 13.034667-22.954667 25.493333-35.989334 36.693334-9.941333 8.554667-19.349333 17.792-30.741333 24.554666-3.584 2.133333-7.082667 4.48-11.242667 5.376-3.093333 0.661333-6.058667 0.554667-8.874666-1.237333-1.578667-1.002667-1.941333-2.176-1.322667-3.882667 0.746667-2.048 1.962667-3.776 3.242667-5.482666 2.624-3.498667 5.589333-6.698667 8.746666-9.685334 13.504-12.672 24.533333-27.477333 36.010667-41.877333 5.845333-7.338667 11.669333-14.698667 17.408-22.08 6.485333-8.32 12.821333-16.810667 19.328-25.130667 9.962667-12.714667 20.181333-25.194667 28.266667-39.253333 6.677333-11.605333 12.992-23.424 18.730666-35.52 4.522667-9.493333 6.442667-17.450667 6.293334-25.152z m75.797333 68.330667c-0.149333-0.704 0.448-1.557333-0.192-2.666667-2.773333-4.693333-5.696-6.016-11.157333-4.373333-11.925333 3.562667-23.786667 7.317333-35.584 11.285333-8.341333 2.816-16.426667 6.208-24.469334 9.706667-2.666667 1.152-5.162667 2.752-5.354666 5.952-0.106667 1.834667-0.981333 2.645333-2.24 3.626666-4.885333 3.797333-8.448 8.256-6.741334 15.061334 0.149333 0.576-0.32 1.173333 0.490667 1.749333 2.026667 1.386667 3.776 3.136 6.037333 4.245333 13.674667 6.677333 26.752 14.4 39.104 23.232 8.576 6.122667 13.226667 3.285333 17.173334-4.821333 8.725333-17.941333 14.378667-37.013333 21.632-55.488 0.874667-2.304 1.472-4.736 1.301333-7.509333zM379.541333 515.072c7.210667-1.365333 14.122667-2.709333 21.290667-2.538667 15.424 0.362667 30.08 3.797333 43.797333 10.773334 11.413333 5.802667 15.082667 16.042667 15.04 28.117333 0 0.661333-0.213333 1.344-0.426666 1.984-5.397333 16.32-8.533333 33.173333-11.242667 50.090667a15799.637333 15799.637333 0 0 0-14.826667 94.485333c-3.050667 19.754667-9.834667 38.421333-16.213333 57.237333-6.272 18.538667-14.805333 35.925333-25.792 52.096-1.92 2.816-3.797333 5.674667-6.549333 7.786667-5.205333 3.989333-11.541333 4.693333-15.722667 0.512-8.789333-8.810667-19.392-15.338667-28.522667-23.658667-6.805333-6.186667-11.989333-13.738667-17.813333-20.736-1.152-1.386667-1.941333-3.008-2.197333-4.842666-0.256-1.898667 0.554667-2.901333 2.496-3.029334 1.578667-0.085333 3.029333 0.362667 4.458666 0.96 4.778667 2.005333 8.853333 5.098667 12.714667 8.490667 4.330667 3.797333 9.216 5.994667 15.168 5.546667 5.866667-0.448 10.410667-2.901333 13.44-8.021334 4.885333-8.256 8.512-17.045333 11.328-26.218666 6.848-22.357333 12.842667-44.928 17.322667-67.861334 5.205333-26.645333 10.474667-53.290667 16.128-79.829333 2.794667-13.098667 4.032-26.453333 5.312-39.786667 0.704-7.253333-2.026667-11.264-8.938667-13.568-7.424-2.453333-14.997333-1.642667-22.549333-0.64-22.250667 2.944-43.562667 9.728-65.024 15.829334-12.16 3.456-23.978667 7.829333-35.584 12.842666-5.44 2.346667-10.368 5.568-15.082667 9.109334-4.309333 3.242667-9.024 5.333333-14.506667 5.845333-5.866667 0.533333-13.12-2.944-16.128-8.042667-1.472-2.517333-1.621333-5.141333-0.96-7.893333 1.365333-5.653333 4.224-10.581333 7.381334-15.36 0.277333-0.426667 0.554667-0.874667 0.896-1.237333 11.477333-12.629333 17.877333-27.818667 22.4-44.032 3.669333-13.141333 8.64-25.856 12.16-39.061334 2.325333-8.725333 2.752-17.685333 3.285333-26.602666 0.682667-11.413333 1.024-22.848-0.298667-34.24-0.490667-4.202667-1.813333-8.128-3.434666-12.010667-0.981333-2.346667-2.112-4.672-2.624-7.189333-0.426667-2.069333 0.149333-3.413333 2.581333-3.669334 4.842667-0.490667 9.578667-0.042667 14.08 1.792 13.034667 5.333333 23.722667 15.936 23.68 32.874667-0.021333 11.562667-1.578667 22.976-3.648 34.282667-3.008 16.341333-6.314667 32.64-10.176 48.810666-1.429333 5.994667-3.754667 11.669333-6.101333 17.344-0.917333 2.218667-1.728 4.437333-1.706667 6.890667 0.021333 4.970667 3.584 8.896 8.426667 8.106667 12.181333-1.984 24.426667-3.861333 35.861333-8.938667 3.648-1.621333 5.930667-4.650667 8.725333-7.168 0.426667-0.384 0.384-0.896 0.170667-1.408-1.450667-3.178667-1.173333-6.442667-0.533333-9.749333 3.392-17.493333 6.848-34.965333 10.112-52.48 2.581333-13.738667 3.733333-27.712 6.016-41.514667 3.477333-21.077333 4.373333-42.389333 6.656-63.573333 0.426667-3.989333 1.152-7.936 1.024-11.968-0.213333-6.762667-4.245333-10.133333-10.901334-9.066667-11.285333 1.813333-22.549333 3.605333-33.834666 5.418667-10.325333 1.664-20.565333 0.362667-30.826667-0.810667-8.426667-0.96-16.490667-3.52-24.725333-5.376-1.344-0.298667-1.813333-0.896-1.749334-2.261333 0.128-3.093333 1.728-5.248 4.970667-5.930667 9.514667-1.984 19.008-4.074667 28.565333-5.76 13.056-2.282667 25.706667-6.058667 38.336-9.898667 6.442667-1.962667 12.778667-4.608 19.541334-4.928 16.192-0.810667 31.381333 2.453333 44.522666 12.629334 1.536 1.194667 2.88 2.666667 4.224 4.096 3.712 3.968 4.757333 8.32 2.645334 13.610666-3.114667 7.829333-3.818667 16.234667-5.034667 24.490667-5.205333 35.349333-10.325333 70.677333-17.408 105.728-2.709333 13.376-6.293333 26.538667-9.408 39.808-0.533333 2.282667-0.682667 4.501333 0.256 6.762667 0.853333 2.090667-1.024 3.029333-2.197333 4.096-0.704 0.746667-1.685333 1.152-2.325334 2.453333zM525.845333 427.733333c0.021333-5.696 0.384-10.986667 1.194667-16.213333 1.237333-7.957333 4.522667-15.125333 9.898667-21.034667 22.741333-25.002667 40.149333-53.845333 59.072-81.6 3.370667-4.928 6.549333-9.984 9.536-15.146666 5.504-9.514667 7.125333-19.392 2.496-29.845334-1.450667-3.264-2.474667-6.72-2.304-10.410666 0.170667-3.776 1.642667-4.928 5.376-4.458667 8.128 1.002667 16.234667 2.090667 23.829333 5.504 4.010667 1.792 7.658667 4.074667 10.773333 7.210667 4.458667 4.458667 5.653333 9.450667 3.157334 15.402666-3.968 9.365333-8.618667 18.368-14.293334 26.816-6.869333 10.197333-14.741333 19.648-22.293333 29.333334-13.205333 16.853333-25.749333 34.197333-38.165333 51.648-1.728 2.432-3.52 4.8-5.674667 6.912-2.496 2.474667-2.666667 5.845333-0.682667 8.362666 1.941333 2.453333 5.653333 3.392 8.277334 1.365334 11.989333-9.258667 26.325333-12.48 40.512-16.149334 9.514667-2.453333 18.581333-6.229333 27.776-9.578666 13.525333-4.928 27.093333-9.813333 40.597333-14.826667 9.898667-3.669333 11.178667-10.176 3.52-17.450667-0.853333-0.810667-1.749333-1.664-2.752-2.282666-7.509333-4.672-11.776-11.925333-15.616-19.52-1.045333-2.069333-1.834667-4.224-1.856-6.592-0.021333-2.922667 1.493333-4.266667 4.394667-3.776 1.344 0.234667 2.666667 0.597333 3.925333 1.088 25.749333 9.984 48.341333 24.384 65.642667 46.357333 6.784 8.618667 11.477333 18.133333 13.269333 28.970667 0.682667 4.181333 0.213333 8.341333-1.109333 12.373333-0.896 2.730667-2.218667 3.52-5.034667 3.072-3.797333-0.618667-7.04-2.453333-10.090667-4.714667-4.757333-3.541333-8.512-8.128-12.821333-12.117333-3.904-3.648-8.362667-5.930667-13.845333-5.354667-2.368 0.256-4.757333 0.618667-7.04 1.237334-16.170667 4.352-31.829333 10.154667-47.189334 16.746666-16.917333 7.274667-33.962667 14.186667-51.285333 20.437334-1.770667 0.64-3.498667 1.941333-5.610667 0.853333-0.256-0.128-0.832 0.170667-1.152 0.405333-5.056 3.456-11.093333 4.224-16.746666 5.952-13.525333 4.138667-26.773333 9.152-40.469334 12.736-3.690667 0.96-7.402667 1.173333-11.157333 0.832-3.093333-0.277333-4.757333-1.770667-5.546667-4.778666-0.768-2.709333-0.405333-5.461333-0.512-7.765334z" p-id="4469"></path><path d="M167.872 685.504c0.128-1.088 0.234667-2.197333 0.384-3.285333 0.384-2.922667 2.005333-4.48 4.992-4.906667 7.402667-1.045333 14.869333-1.898667 22.208-3.370667 13.504-2.709333 26.154667-8.106667 38.933333-13.077333 16.682667-6.506667 32.874667-14.165333 49.365334-21.098667 5.376-2.261333 10.56-4.842667 15.893333-7.189333 5.461333-2.410667 10.922667-4.8 16.362667-7.253333s10.837333-4.970667 16.277333-7.424c8.234667-3.712 16.64-6.677333 25.92-5.482667 4.330667 0.554667 8.277333 2.069333 11.392 5.248 2.410667 2.453333 2.581333 4.672 0.789333 7.616-0.96 1.557333-2.282667 2.730667-3.754666 3.776-4.544 3.242667-9.834667 4.608-15.082667 6.122667-1.024 0.298667-1.813333-0.213333-2.688-0.448-2.88-0.789333-4.202667-0.234667-5.397333 2.410666-0.405333 0.874667-1.024 1.450667-1.941334 1.898667-6.314667 3.008-12.352 6.549333-18.24 10.325333-27.2 17.365333-55.765333 32.298667-84.416 47.061334-14.208 7.317333-29.333333 11.413333-45.184 13.077333-1.728 0.192-3.413333-0.064-5.098666-0.341333-10.88-1.792-20.629333-12.949333-20.714667-23.658667zM547.392 464.426667c0.085333-2.752-0.746667-5.76-2.005333-8.704-1.024-2.410667-0.256-4.010667 2.261333-4.778667 3.754667-1.130667 7.637333-1.962667 11.242667-3.456 3.84-1.578667 7.445333-1.152 11.029333 0.32 5.269333 2.176 10.496 4.544 15.36 7.552 5.525333 3.413333 6.357333 5.717333 4.842667 11.946667-3.434667 14.314667-10.261333 26.666667-20.138667 37.674666-17.962667 19.989333-38.08 37.653333-57.749333 55.808-4.949333 4.565333-9.813333 9.237333-15.445334 13.013334-2.346667 1.578667-4.821333 2.901333-7.658666 3.413333-2.965333 0.533333-4.778667-0.725333-5.376-3.605333-0.597333-2.88 0.149333-5.589333 1.002666-8.277334 2.368-7.445333 7.146667-13.312 12.437334-18.816 7.68-8 15.232-16.170667 21.162666-25.6 7.594667-12.053333 15.125333-24.128 23.018667-35.968 4.032-6.016 5.888-12.778667 6.016-20.522666zM683.562667 426.581333c4.586667-1.450667 8.832-1.152 13.034666-0.426666 6.037333 1.045333 12.010667 2.410667 17.898667 4.202666 2.389333 0.725333 4.778667 1.365333 6.314667 3.541334 0.661333 0.917333 1.6 0.874667 2.538666 0.789333 3.456-0.341333 6.229333 1.130667 8.96 3.008 2.453333 1.685333 5.098667 3.072 8.021334 3.797333 0.32 0.085333 0.64 0.256 0.938666 0.426667 13.717333 8 27.285333 16.192 38.421334 27.754667 5.418667 5.610667 9.92 11.925333 14.037333 18.496 2.154667 3.434667 3.52 7.296 1.301333 11.114666-2.154667 3.712-6.186667 4.352-10.069333 4.437334-5.76 0.128-10.986667-2.154667-16.192-4.266667-11.968-4.864-22.677333-11.626667-31.786667-20.949333-10.986667-11.242667-23.509333-20.757333-35.328-31.061334-4.202667-3.669333-7.957333-7.68-11.093333-12.309333-1.984-2.965333-4.202667-5.76-6.997333-8.554667z" p-id="4470"></path></svg>